<mxfile host="65bd71144e">
    <diagram name="Página-1" id="UpW4a75aEm0ncJdLSgOz">
        <mxGraphModel dx="1493" dy="778" grid="1" gridSize="10" guides="1" tooltips="1" connect="1" arrows="1" fold="1" page="1" pageScale="1" pageWidth="827" pageHeight="1169" math="0" shadow="0">
            <root>
                <mxCell id="0"/>
                <mxCell id="1" parent="0"/>
                <mxCell id="hDqTEcbeDnQ8Wxrru2X5-1" value="Inicio" style="ellipse;whiteSpace=wrap;html=1;" parent="1" vertex="1">
                    <mxGeometry x="380" y="20" width="120" height="80" as="geometry"/>
                </mxCell>
                <mxCell id="hDqTEcbeDnQ8Wxrru2X5-2" value="" style="endArrow=classic;html=1;rounded=0;exitX=0.5;exitY=1;exitDx=0;exitDy=0;" parent="1" source="hDqTEcbeDnQ8Wxrru2X5-1" edge="1">
                    <mxGeometry width="50" height="50" relative="1" as="geometry">
                        <mxPoint x="390" y="260" as="sourcePoint"/>
                        <mxPoint x="440" y="140" as="targetPoint"/>
                    </mxGeometry>
                </mxCell>
                <mxCell id="hDqTEcbeDnQ8Wxrru2X5-3" value="Bienvenido al banco aguila S.A" style="rounded=0;whiteSpace=wrap;html=1;" parent="1" vertex="1">
                    <mxGeometry x="380" y="140" width="120" height="60" as="geometry"/>
                </mxCell>
                <mxCell id="VG1QhJz4mvUb07NT_7DX-1" value="Ingresar numero de cuenta" style="rhombus;whiteSpace=wrap;html=1;" parent="1" vertex="1">
                    <mxGeometry x="385" y="230" width="110" height="100" as="geometry"/>
                </mxCell>
                <mxCell id="VG1QhJz4mvUb07NT_7DX-2" value="" style="endArrow=classic;html=1;rounded=0;exitX=0.5;exitY=1;exitDx=0;exitDy=0;entryX=0.5;entryY=0;entryDx=0;entryDy=0;" parent="1" source="hDqTEcbeDnQ8Wxrru2X5-3" target="VG1QhJz4mvUb07NT_7DX-1" edge="1">
                    <mxGeometry width="50" height="50" relative="1" as="geometry">
                        <mxPoint x="390" y="270" as="sourcePoint"/>
                        <mxPoint x="440" y="220" as="targetPoint"/>
                    </mxGeometry>
                </mxCell>
                <mxCell id="VG1QhJz4mvUb07NT_7DX-3" value="" style="endArrow=classic;html=1;rounded=0;exitX=1;exitY=0.5;exitDx=0;exitDy=0;" parent="1" source="VG1QhJz4mvUb07NT_7DX-1" edge="1">
                    <mxGeometry width="50" height="50" relative="1" as="geometry">
                        <mxPoint x="510" y="280" as="sourcePoint"/>
                        <mxPoint x="590" y="280" as="targetPoint"/>
                    </mxGeometry>
                </mxCell>
                <mxCell id="VG1QhJz4mvUb07NT_7DX-4" value="si la cuenta existe" style="text;html=1;align=center;verticalAlign=middle;whiteSpace=wrap;rounded=0;" parent="1" vertex="1">
                    <mxGeometry x="495" y="250" width="90" height="30" as="geometry"/>
                </mxCell>
                <mxCell id="VG1QhJz4mvUb07NT_7DX-5" value="Pedir clave" style="rounded=0;whiteSpace=wrap;html=1;" parent="1" vertex="1">
                    <mxGeometry x="590" y="250" width="120" height="60" as="geometry"/>
                </mxCell>
                <mxCell id="VG1QhJz4mvUb07NT_7DX-6" value="si la cuenta no existe" style="text;html=1;align=center;verticalAlign=middle;whiteSpace=wrap;rounded=0;" parent="1" vertex="1">
                    <mxGeometry x="280" y="240" width="100" height="30" as="geometry"/>
                </mxCell>
                <mxCell id="VG1QhJz4mvUb07NT_7DX-8" value="" style="endArrow=classic;html=1;rounded=0;exitX=0;exitY=0.5;exitDx=0;exitDy=0;" parent="1" source="VG1QhJz4mvUb07NT_7DX-1" edge="1">
                    <mxGeometry width="50" height="50" relative="1" as="geometry">
                        <mxPoint x="390" y="270" as="sourcePoint"/>
                        <mxPoint x="270" y="280" as="targetPoint"/>
                    </mxGeometry>
                </mxCell>
                <mxCell id="VG1QhJz4mvUb07NT_7DX-9" value="esta cuenta no existe" style="rounded=0;whiteSpace=wrap;html=1;" parent="1" vertex="1">
                    <mxGeometry x="150" y="250" width="120" height="60" as="geometry"/>
                </mxCell>
                <mxCell id="VG1QhJz4mvUb07NT_7DX-10" value="" style="endArrow=classic;html=1;rounded=0;exitX=0.5;exitY=0;exitDx=0;exitDy=0;entryX=0;entryY=0.5;entryDx=0;entryDy=0;" parent="1" source="VG1QhJz4mvUb07NT_7DX-9" target="hDqTEcbeDnQ8Wxrru2X5-3" edge="1">
                    <mxGeometry width="50" height="50" relative="1" as="geometry">
                        <mxPoint x="190" y="230" as="sourcePoint"/>
                        <mxPoint x="240" y="180" as="targetPoint"/>
                        <Array as="points">
                            <mxPoint x="210" y="170"/>
                        </Array>
                    </mxGeometry>
                </mxCell>
                <mxCell id="VG1QhJz4mvUb07NT_7DX-11" value="" style="endArrow=classic;html=1;rounded=0;exitX=0.5;exitY=1;exitDx=0;exitDy=0;" parent="1" source="VG1QhJz4mvUb07NT_7DX-5" edge="1">
                    <mxGeometry width="50" height="50" relative="1" as="geometry">
                        <mxPoint x="670" y="410" as="sourcePoint"/>
                        <mxPoint x="650" y="360" as="targetPoint"/>
                    </mxGeometry>
                </mxCell>
                <mxCell id="VG1QhJz4mvUb07NT_7DX-12" value="clave correcta?" style="rhombus;whiteSpace=wrap;html=1;" parent="1" vertex="1">
                    <mxGeometry x="600" y="360" width="100" height="80" as="geometry"/>
                </mxCell>
                <mxCell id="VG1QhJz4mvUb07NT_7DX-14" value="" style="endArrow=classic;html=1;rounded=0;exitX=0;exitY=0.5;exitDx=0;exitDy=0;" parent="1" source="VG1QhJz4mvUb07NT_7DX-12" edge="1">
                    <mxGeometry width="50" height="50" relative="1" as="geometry">
                        <mxPoint x="515" y="400" as="sourcePoint"/>
                        <mxPoint x="510" y="400" as="targetPoint"/>
                    </mxGeometry>
                </mxCell>
                <mxCell id="VG1QhJz4mvUb07NT_7DX-116" value="si" style="edgeLabel;html=1;align=center;verticalAlign=middle;resizable=0;points=[];" parent="VG1QhJz4mvUb07NT_7DX-14" vertex="1" connectable="0">
                    <mxGeometry x="-0.0115" y="-1" relative="1" as="geometry">
                        <mxPoint as="offset"/>
                    </mxGeometry>
                </mxCell>
                <mxCell id="VG1QhJz4mvUb07NT_7DX-15" value="bienvenido &amp;lt;nombre&amp;gt;" style="rounded=0;whiteSpace=wrap;html=1;" parent="1" vertex="1">
                    <mxGeometry x="390" y="370" width="120" height="60" as="geometry"/>
                </mxCell>
                <mxCell id="VG1QhJz4mvUb07NT_7DX-16" value="" style="endArrow=classic;html=1;rounded=0;exitX=0.5;exitY=1;exitDx=0;exitDy=0;" parent="1" source="VG1QhJz4mvUb07NT_7DX-15" edge="1">
                    <mxGeometry width="50" height="50" relative="1" as="geometry">
                        <mxPoint x="480" y="450" as="sourcePoint"/>
                        <mxPoint x="450" y="480" as="targetPoint"/>
                    </mxGeometry>
                </mxCell>
                <mxCell id="VG1QhJz4mvUb07NT_7DX-18" value="mostrar menu" style="rounded=0;whiteSpace=wrap;html=1;" parent="1" vertex="1">
                    <mxGeometry x="390" y="570" width="120" height="60" as="geometry"/>
                </mxCell>
                <mxCell id="VG1QhJz4mvUb07NT_7DX-19" value="" style="endArrow=classic;html=1;rounded=0;exitX=0.5;exitY=1;exitDx=0;exitDy=0;entryX=0.5;entryY=0;entryDx=0;entryDy=0;" parent="1" target="VG1QhJz4mvUb07NT_7DX-18" edge="1">
                    <mxGeometry width="50" height="50" relative="1" as="geometry">
                        <mxPoint x="450" y="540" as="sourcePoint"/>
                        <mxPoint x="610" y="510" as="targetPoint"/>
                    </mxGeometry>
                </mxCell>
                <mxCell id="VG1QhJz4mvUb07NT_7DX-22" value="cuenta activa" style="shape=parallelogram;perimeter=parallelogramPerimeter;whiteSpace=wrap;html=1;fixedSize=1;" parent="1" vertex="1">
                    <mxGeometry x="390" y="480" width="120" height="60" as="geometry"/>
                </mxCell>
                <mxCell id="VG1QhJz4mvUb07NT_7DX-25" value="" style="endArrow=classic;html=1;rounded=0;exitX=0.5;exitY=1;exitDx=0;exitDy=0;entryX=0.5;entryY=0;entryDx=0;entryDy=0;" parent="1" source="VG1QhJz4mvUb07NT_7DX-12" target="VG1QhJz4mvUb07NT_7DX-106" edge="1">
                    <mxGeometry width="50" height="50" relative="1" as="geometry">
                        <mxPoint x="710" y="550" as="sourcePoint"/>
                        <mxPoint x="800" y="400" as="targetPoint"/>
                    </mxGeometry>
                </mxCell>
                <mxCell id="VG1QhJz4mvUb07NT_7DX-117" value="no" style="edgeLabel;html=1;align=center;verticalAlign=middle;resizable=0;points=[];" parent="VG1QhJz4mvUb07NT_7DX-25" vertex="1" connectable="0">
                    <mxGeometry x="-0.0297" y="2" relative="1" as="geometry">
                        <mxPoint as="offset"/>
                    </mxGeometry>
                </mxCell>
                <mxCell id="VG1QhJz4mvUb07NT_7DX-30" value="¿Que podemos&amp;nbsp;&lt;div&gt;hacer hoy por ti?&lt;div&gt;&lt;br&gt;&lt;/div&gt;&lt;div&gt;opciones de menu&lt;div&gt;&lt;br&gt;&lt;div&gt;&amp;nbsp;1. consultar saldo&lt;/div&gt;&lt;div&gt;2.retirar dinero&lt;/div&gt;&lt;div&gt;3. depositar dinero&lt;/div&gt;&lt;div&gt;4. ver historial&lt;/div&gt;&lt;/div&gt;&lt;div&gt;5. cerrar sesion&lt;/div&gt;&lt;/div&gt;&lt;/div&gt;" style="rhombus;whiteSpace=wrap;html=1;" parent="1" vertex="1">
                    <mxGeometry x="315" y="690" width="270" height="270" as="geometry"/>
                </mxCell>
                <mxCell id="VG1QhJz4mvUb07NT_7DX-31" value="" style="endArrow=classic;html=1;rounded=0;exitX=0.5;exitY=1;exitDx=0;exitDy=0;entryX=0.5;entryY=0;entryDx=0;entryDy=0;" parent="1" source="VG1QhJz4mvUb07NT_7DX-18" target="VG1QhJz4mvUb07NT_7DX-30" edge="1">
                    <mxGeometry width="50" height="50" relative="1" as="geometry">
                        <mxPoint x="510" y="790" as="sourcePoint"/>
                        <mxPoint x="560" y="740" as="targetPoint"/>
                    </mxGeometry>
                </mxCell>
                <mxCell id="VG1QhJz4mvUb07NT_7DX-32" value="1. consultar saldo" style="whiteSpace=wrap;html=1;aspect=fixed;" parent="1" vertex="1">
                    <mxGeometry x="210" y="990" width="80" height="80" as="geometry"/>
                </mxCell>
                <mxCell id="VG1QhJz4mvUb07NT_7DX-33" value="" style="endArrow=classic;html=1;rounded=0;entryX=0.5;entryY=0;entryDx=0;entryDy=0;exitX=0.13;exitY=0.628;exitDx=0;exitDy=0;exitPerimeter=0;" parent="1" source="VG1QhJz4mvUb07NT_7DX-30" target="VG1QhJz4mvUb07NT_7DX-32" edge="1">
                    <mxGeometry width="50" height="50" relative="1" as="geometry">
                        <mxPoint x="299.64285714285717" y="900" as="sourcePoint"/>
                        <mxPoint x="560" y="900" as="targetPoint"/>
                        <Array as="points">
                            <mxPoint x="250" y="940"/>
                        </Array>
                    </mxGeometry>
                </mxCell>
                <mxCell id="VG1QhJz4mvUb07NT_7DX-34" value="2. retirar&lt;div&gt;ingrese cuanto quiere retirar&lt;/div&gt;" style="rounded=0;whiteSpace=wrap;html=1;" parent="1" vertex="1">
                    <mxGeometry x="407.5" y="990" width="85" height="70" as="geometry"/>
                </mxCell>
                <mxCell id="VG1QhJz4mvUb07NT_7DX-112" style="edgeStyle=orthogonalEdgeStyle;rounded=0;orthogonalLoop=1;jettySize=auto;html=1;entryX=1;entryY=0.5;entryDx=0;entryDy=0;" parent="1" source="VG1QhJz4mvUb07NT_7DX-42" target="hDqTEcbeDnQ8Wxrru2X5-3" edge="1">
                    <mxGeometry relative="1" as="geometry">
                        <mxPoint x="620" y="160" as="targetPoint"/>
                        <Array as="points">
                            <mxPoint x="920" y="610"/>
                            <mxPoint x="920" y="170"/>
                        </Array>
                    </mxGeometry>
                </mxCell>
                <mxCell id="VG1QhJz4mvUb07NT_7DX-42" value="intenta mas tarde&lt;div&gt;(acceso denegado por 24 horas)&lt;/div&gt;" style="rounded=0;whiteSpace=wrap;html=1;" parent="1" vertex="1">
                    <mxGeometry x="750" y="580" width="120" height="60" as="geometry"/>
                </mxCell>
                <mxCell id="VG1QhJz4mvUb07NT_7DX-43" value="4. ver historial" style="rounded=0;whiteSpace=wrap;html=1;" parent="1" vertex="1">
                    <mxGeometry x="980" y="1010" width="120" height="60" as="geometry"/>
                </mxCell>
                <mxCell id="VG1QhJz4mvUb07NT_7DX-44" value="5. cerrar sesion" style="rounded=0;whiteSpace=wrap;html=1;" parent="1" vertex="1">
                    <mxGeometry x="1160" y="1010" width="120" height="60" as="geometry"/>
                </mxCell>
                <mxCell id="VG1QhJz4mvUb07NT_7DX-45" value="" style="endArrow=classic;html=1;rounded=0;exitX=0.5;exitY=1;exitDx=0;exitDy=0;" parent="1" source="VG1QhJz4mvUb07NT_7DX-32" edge="1">
                    <mxGeometry width="50" height="50" relative="1" as="geometry">
                        <mxPoint x="315" y="1110" as="sourcePoint"/>
                        <mxPoint x="250" y="1110" as="targetPoint"/>
                    </mxGeometry>
                </mxCell>
                <mxCell id="3" value="" style="edgeStyle=none;html=1;" edge="1" parent="1" source="VG1QhJz4mvUb07NT_7DX-46" target="2">
                    <mxGeometry relative="1" as="geometry"/>
                </mxCell>
                <mxCell id="VG1QhJz4mvUb07NT_7DX-46" value="hola &amp;lt;nombre&amp;gt; tu saldo es de &amp;lt;$$$&amp;gt;" style="rounded=0;whiteSpace=wrap;html=1;" parent="1" vertex="1">
                    <mxGeometry x="205" y="1109" width="90" height="60" as="geometry"/>
                </mxCell>
                <mxCell id="10" style="edgeStyle=none;html=1;entryX=0.5;entryY=0;entryDx=0;entryDy=0;" edge="1" parent="1" source="VG1QhJz4mvUb07NT_7DX-47" target="VG1QhJz4mvUb07NT_7DX-59">
                    <mxGeometry relative="1" as="geometry"/>
                </mxCell>
                <mxCell id="11" value="no" style="edgeLabel;html=1;align=center;verticalAlign=middle;resizable=0;points=[];" vertex="1" connectable="0" parent="10">
                    <mxGeometry x="-0.1699" y="3" relative="1" as="geometry">
                        <mxPoint as="offset"/>
                    </mxGeometry>
                </mxCell>
                <mxCell id="VG1QhJz4mvUb07NT_7DX-47" value="el monto a retirar es mayor a&amp;nbsp; 7000000?" style="rhombus;whiteSpace=wrap;html=1;" parent="1" vertex="1">
                    <mxGeometry x="370" y="1109" width="160" height="110" as="geometry"/>
                </mxCell>
                <mxCell id="VG1QhJz4mvUb07NT_7DX-48" value="" style="endArrow=classic;html=1;rounded=0;exitX=0.5;exitY=1;exitDx=0;exitDy=0;entryX=0.5;entryY=0;entryDx=0;entryDy=0;" parent="1" source="VG1QhJz4mvUb07NT_7DX-34" target="VG1QhJz4mvUb07NT_7DX-47" edge="1">
                    <mxGeometry width="50" height="50" relative="1" as="geometry">
                        <mxPoint x="550" y="1070" as="sourcePoint"/>
                        <mxPoint x="600" y="1020" as="targetPoint"/>
                    </mxGeometry>
                </mxCell>
                <mxCell id="VG1QhJz4mvUb07NT_7DX-55" value="" style="endArrow=classic;html=1;rounded=0;exitX=0.5;exitY=1;exitDx=0;exitDy=0;entryX=0.5;entryY=0;entryDx=0;entryDy=0;" parent="1" source="VG1QhJz4mvUb07NT_7DX-30" target="VG1QhJz4mvUb07NT_7DX-34" edge="1">
                    <mxGeometry width="50" height="50" relative="1" as="geometry">
                        <mxPoint x="515" y="1070" as="sourcePoint"/>
                        <mxPoint x="565" y="1020" as="targetPoint"/>
                    </mxGeometry>
                </mxCell>
                <mxCell id="VG1QhJz4mvUb07NT_7DX-56" value="tu retiro excede el limite dinero intenta denuevo" style="rounded=0;whiteSpace=wrap;html=1;" parent="1" vertex="1">
                    <mxGeometry x="585" y="1134" width="120" height="60" as="geometry"/>
                </mxCell>
                <mxCell id="VG1QhJz4mvUb07NT_7DX-57" value="" style="endArrow=classic;html=1;rounded=0;exitX=1;exitY=0.5;exitDx=0;exitDy=0;entryX=0;entryY=0.5;entryDx=0;entryDy=0;" parent="1" source="VG1QhJz4mvUb07NT_7DX-47" target="VG1QhJz4mvUb07NT_7DX-56" edge="1">
                    <mxGeometry width="50" height="50" relative="1" as="geometry">
                        <mxPoint x="520" y="1240" as="sourcePoint"/>
                        <mxPoint x="570" y="1190" as="targetPoint"/>
                    </mxGeometry>
                </mxCell>
                <mxCell id="8" value="si" style="edgeLabel;html=1;align=center;verticalAlign=middle;resizable=0;points=[];" vertex="1" connectable="0" parent="VG1QhJz4mvUb07NT_7DX-57">
                    <mxGeometry x="-0.1939" y="3" relative="1" as="geometry">
                        <mxPoint as="offset"/>
                    </mxGeometry>
                </mxCell>
                <mxCell id="VG1QhJz4mvUb07NT_7DX-59" value="tu retiro fe exitoso aqui tienes" style="rounded=0;whiteSpace=wrap;html=1;" parent="1" vertex="1">
                    <mxGeometry x="390" y="1270" width="120" height="60" as="geometry"/>
                </mxCell>
                <mxCell id="VG1QhJz4mvUb07NT_7DX-63" value="" style="endArrow=classic;html=1;rounded=0;entryX=0.5;entryY=0;entryDx=0;entryDy=0;exitX=0.5;exitY=1;exitDx=0;exitDy=0;" parent="1" source="VG1QhJz4mvUb07NT_7DX-59" target="12" edge="1">
                    <mxGeometry width="50" height="50" relative="1" as="geometry">
                        <mxPoint x="470" y="1310" as="sourcePoint"/>
                        <mxPoint x="450" y="1359.9999999999998" as="targetPoint"/>
                    </mxGeometry>
                </mxCell>
                <mxCell id="VG1QhJz4mvUb07NT_7DX-66" value="" style="endArrow=classic;html=1;rounded=0;entryX=0.5;entryY=0;entryDx=0;entryDy=0;exitX=1;exitY=0.5;exitDx=0;exitDy=0;" parent="1" target="VG1QhJz4mvUb07NT_7DX-35" edge="1" source="VG1QhJz4mvUb07NT_7DX-30">
                    <mxGeometry width="50" height="50" relative="1" as="geometry">
                        <mxPoint x="560" y="798" as="sourcePoint"/>
                        <mxPoint x="860" y="798" as="targetPoint"/>
                        <Array as="points">
                            <mxPoint x="830" y="825"/>
                        </Array>
                    </mxGeometry>
                </mxCell>
                <mxCell id="VG1QhJz4mvUb07NT_7DX-67" value="ingrese monto a depositar" style="rounded=0;whiteSpace=wrap;html=1;" parent="1" vertex="1">
                    <mxGeometry x="770" y="1060" width="120" height="60" as="geometry"/>
                </mxCell>
                <mxCell id="VG1QhJz4mvUb07NT_7DX-68" value="deposito exitoso" style="rounded=0;whiteSpace=wrap;html=1;" parent="1" vertex="1">
                    <mxGeometry x="770" y="1190" width="120" height="60" as="geometry"/>
                </mxCell>
                <mxCell id="VG1QhJz4mvUb07NT_7DX-69" value="" style="endArrow=classic;html=1;rounded=0;exitX=0.5;exitY=1;exitDx=0;exitDy=0;entryX=0.5;entryY=0;entryDx=0;entryDy=0;" parent="1" source="VG1QhJz4mvUb07NT_7DX-35" target="VG1QhJz4mvUb07NT_7DX-67" edge="1">
                    <mxGeometry width="50" height="50" relative="1" as="geometry">
                        <mxPoint x="980" y="1150" as="sourcePoint"/>
                        <mxPoint x="1030" y="1100" as="targetPoint"/>
                    </mxGeometry>
                </mxCell>
                <mxCell id="VG1QhJz4mvUb07NT_7DX-70" value="" style="endArrow=classic;html=1;rounded=0;exitX=0.5;exitY=1;exitDx=0;exitDy=0;entryX=0.5;entryY=0;entryDx=0;entryDy=0;" parent="1" source="VG1QhJz4mvUb07NT_7DX-67" target="VG1QhJz4mvUb07NT_7DX-68" edge="1">
                    <mxGeometry width="50" height="50" relative="1" as="geometry">
                        <mxPoint x="1000" y="1330" as="sourcePoint"/>
                        <mxPoint x="1050" y="1280" as="targetPoint"/>
                    </mxGeometry>
                </mxCell>
                <mxCell id="VG1QhJz4mvUb07NT_7DX-72" value="" style="endArrow=classic;html=1;rounded=0;exitX=0.5;exitY=1;exitDx=0;exitDy=0;entryX=0.5;entryY=0;entryDx=0;entryDy=0;" parent="1" source="VG1QhJz4mvUb07NT_7DX-68" target="18" edge="1">
                    <mxGeometry width="50" height="50" relative="1" as="geometry">
                        <mxPoint x="1030" y="1330" as="sourcePoint"/>
                        <mxPoint x="1080" y="1280" as="targetPoint"/>
                    </mxGeometry>
                </mxCell>
                <mxCell id="VG1QhJz4mvUb07NT_7DX-73" value="" style="endArrow=classic;html=1;rounded=0;exitX=1;exitY=0.5;exitDx=0;exitDy=0;entryX=0.903;entryY=0.408;entryDx=0;entryDy=0;entryPerimeter=0;" parent="1" source="18" target="VG1QhJz4mvUb07NT_7DX-30" edge="1">
                    <mxGeometry width="50" height="50" relative="1" as="geometry">
                        <mxPoint x="812.5" y="1340.0000000000002" as="sourcePoint"/>
                        <mxPoint x="520" y="760" as="targetPoint"/>
                        <Array as="points">
                            <mxPoint x="932.5" y="1340"/>
                            <mxPoint x="933" y="800"/>
                        </Array>
                    </mxGeometry>
                </mxCell>
                <mxCell id="22" value="no" style="edgeLabel;html=1;align=center;verticalAlign=middle;resizable=0;points=[];" vertex="1" connectable="0" parent="VG1QhJz4mvUb07NT_7DX-73">
                    <mxGeometry x="-0.9513" y="-2" relative="1" as="geometry">
                        <mxPoint as="offset"/>
                    </mxGeometry>
                </mxCell>
                <mxCell id="VG1QhJz4mvUb07NT_7DX-76" value="" style="endArrow=classic;html=1;rounded=0;entryX=0.5;entryY=0;entryDx=0;entryDy=0;exitX=0.832;exitY=0.332;exitDx=0;exitDy=0;exitPerimeter=0;" parent="1" source="VG1QhJz4mvUb07NT_7DX-30" target="VG1QhJz4mvUb07NT_7DX-43" edge="1">
                    <mxGeometry width="50" height="50" relative="1" as="geometry">
                        <mxPoint x="500" y="740" as="sourcePoint"/>
                        <mxPoint x="1120" y="890" as="targetPoint"/>
                        <Array as="points">
                            <mxPoint x="1040" y="780"/>
                        </Array>
                    </mxGeometry>
                </mxCell>
                <mxCell id="VG1QhJz4mvUb07NT_7DX-77" value="este es su historial de transaccones" style="rounded=0;whiteSpace=wrap;html=1;" parent="1" vertex="1">
                    <mxGeometry x="980" y="1110" width="120" height="60" as="geometry"/>
                </mxCell>
                <mxCell id="VG1QhJz4mvUb07NT_7DX-78" value="" style="endArrow=classic;html=1;rounded=0;exitX=0.5;exitY=1;exitDx=0;exitDy=0;entryX=0.5;entryY=0;entryDx=0;entryDy=0;" parent="1" source="VG1QhJz4mvUb07NT_7DX-43" target="VG1QhJz4mvUb07NT_7DX-77" edge="1">
                    <mxGeometry width="50" height="50" relative="1" as="geometry">
                        <mxPoint x="1260" y="920" as="sourcePoint"/>
                        <mxPoint x="1310" y="870" as="targetPoint"/>
                    </mxGeometry>
                </mxCell>
                <mxCell id="VG1QhJz4mvUb07NT_7DX-35" value="3. depositar" style="rounded=0;whiteSpace=wrap;html=1;" parent="1" vertex="1">
                    <mxGeometry x="770" y="920" width="120" height="70" as="geometry"/>
                </mxCell>
                <mxCell id="VG1QhJz4mvUb07NT_7DX-85" value="" style="endArrow=classic;html=1;rounded=0;exitX=0.5;exitY=1;exitDx=0;exitDy=0;entryX=0.5;entryY=0;entryDx=0;entryDy=0;" parent="1" source="VG1QhJz4mvUb07NT_7DX-77" target="23" edge="1">
                    <mxGeometry width="50" height="50" relative="1" as="geometry">
                        <mxPoint x="1220" y="1184" as="sourcePoint"/>
                        <mxPoint x="1270" y="1134" as="targetPoint"/>
                    </mxGeometry>
                </mxCell>
                <mxCell id="VG1QhJz4mvUb07NT_7DX-86" value="" style="endArrow=classic;html=1;rounded=0;entryX=0.5;entryY=0;entryDx=0;entryDy=0;exitX=0.664;exitY=0.164;exitDx=0;exitDy=0;exitPerimeter=0;" parent="1" source="VG1QhJz4mvUb07NT_7DX-30" target="VG1QhJz4mvUb07NT_7DX-44" edge="1">
                    <mxGeometry width="50" height="50" relative="1" as="geometry">
                        <mxPoint x="1420" y="974" as="sourcePoint"/>
                        <mxPoint x="1470" y="924" as="targetPoint"/>
                        <Array as="points">
                            <mxPoint x="1220" y="734"/>
                        </Array>
                    </mxGeometry>
                </mxCell>
                <mxCell id="33" style="edgeStyle=none;html=1;entryX=0;entryY=0.5;entryDx=0;entryDy=0;" edge="1" parent="1" source="VG1QhJz4mvUb07NT_7DX-87" target="VG1QhJz4mvUb07NT_7DX-98">
                    <mxGeometry relative="1" as="geometry"/>
                </mxCell>
                <mxCell id="34" value="no" style="edgeLabel;html=1;align=center;verticalAlign=middle;resizable=0;points=[];" vertex="1" connectable="0" parent="33">
                    <mxGeometry x="-0.1295" relative="1" as="geometry">
                        <mxPoint as="offset"/>
                    </mxGeometry>
                </mxCell>
                <mxCell id="VG1QhJz4mvUb07NT_7DX-87" value="esta seguro de cerrar sesion?" style="rhombus;whiteSpace=wrap;html=1;" parent="1" vertex="1">
                    <mxGeometry x="1165" y="1148" width="110" height="136" as="geometry"/>
                </mxCell>
                <mxCell id="VG1QhJz4mvUb07NT_7DX-88" value="" style="endArrow=classic;html=1;rounded=0;exitX=0.5;exitY=1;exitDx=0;exitDy=0;entryX=0.5;entryY=0;entryDx=0;entryDy=0;" parent="1" source="VG1QhJz4mvUb07NT_7DX-44" target="VG1QhJz4mvUb07NT_7DX-87" edge="1">
                    <mxGeometry width="50" height="50" relative="1" as="geometry">
                        <mxPoint x="1480" y="1095" as="sourcePoint"/>
                        <mxPoint x="1530" y="1045" as="targetPoint"/>
                    </mxGeometry>
                </mxCell>
                <mxCell id="VG1QhJz4mvUb07NT_7DX-89" value="" style="endArrow=classic;html=1;rounded=0;exitX=0.196;exitY=0.698;exitDx=0;exitDy=0;entryX=0.5;entryY=0;entryDx=0;entryDy=0;exitPerimeter=0;" parent="1" source="VG1QhJz4mvUb07NT_7DX-87" edge="1" target="VG1QhJz4mvUb07NT_7DX-92">
                    <mxGeometry width="50" height="50" relative="1" as="geometry">
                        <mxPoint x="1330" y="1335" as="sourcePoint"/>
                        <mxPoint x="1295" y="1330" as="targetPoint"/>
                        <Array as="points">
                            <mxPoint x="1140" y="1290"/>
                        </Array>
                    </mxGeometry>
                </mxCell>
                <mxCell id="29" value="si" style="edgeLabel;html=1;align=center;verticalAlign=middle;resizable=0;points=[];" vertex="1" connectable="0" parent="VG1QhJz4mvUb07NT_7DX-89">
                    <mxGeometry x="-0.0336" relative="1" as="geometry">
                        <mxPoint x="10" y="-10" as="offset"/>
                    </mxGeometry>
                </mxCell>
                <mxCell id="31" style="edgeStyle=none;html=1;entryX=1;entryY=0.75;entryDx=0;entryDy=0;exitX=0.5;exitY=1;exitDx=0;exitDy=0;" edge="1" parent="1" source="VG1QhJz4mvUb07NT_7DX-92" target="4">
                    <mxGeometry relative="1" as="geometry">
                        <Array as="points">
                            <mxPoint x="1140" y="1585"/>
                        </Array>
                    </mxGeometry>
                </mxCell>
                <mxCell id="VG1QhJz4mvUb07NT_7DX-92" value="sesion cerrada" style="whiteSpace=wrap;html=1;aspect=fixed;" parent="1" vertex="1">
                    <mxGeometry x="1100" y="1330" width="80" height="80" as="geometry"/>
                </mxCell>
                <mxCell id="VG1QhJz4mvUb07NT_7DX-98" value="sigues con tu sesion abierta y vuelves al menu" style="rounded=0;whiteSpace=wrap;html=1;" parent="1" vertex="1">
                    <mxGeometry x="1340" y="1186" width="100" height="60" as="geometry"/>
                </mxCell>
                <mxCell id="VG1QhJz4mvUb07NT_7DX-102" value="fin" style="ellipse;whiteSpace=wrap;html=1;aspect=fixed;" parent="1" vertex="1">
                    <mxGeometry x="780" y="1670" width="80" height="80" as="geometry"/>
                </mxCell>
                <mxCell id="VG1QhJz4mvUb07NT_7DX-105" value="" style="endArrow=classic;html=1;rounded=0;exitX=0.5;exitY=0;exitDx=0;exitDy=0;entryX=0.598;entryY=0.098;entryDx=0;entryDy=0;entryPerimeter=0;" parent="1" source="VG1QhJz4mvUb07NT_7DX-98" target="VG1QhJz4mvUb07NT_7DX-30" edge="1">
                    <mxGeometry width="50" height="50" relative="1" as="geometry">
                        <mxPoint x="1520" y="1360" as="sourcePoint"/>
                        <mxPoint x="1570" y="1310" as="targetPoint"/>
                        <Array as="points">
                            <mxPoint x="1390" y="790"/>
                            <mxPoint x="1390" y="716"/>
                        </Array>
                    </mxGeometry>
                </mxCell>
                <mxCell id="VG1QhJz4mvUb07NT_7DX-120" style="edgeStyle=orthogonalEdgeStyle;rounded=0;orthogonalLoop=1;jettySize=auto;html=1;entryX=0;entryY=0.5;entryDx=0;entryDy=0;exitX=0.5;exitY=1;exitDx=0;exitDy=0;" parent="1" source="VG1QhJz4mvUb07NT_7DX-106" target="VG1QhJz4mvUb07NT_7DX-42" edge="1">
                    <mxGeometry relative="1" as="geometry"/>
                </mxCell>
                <mxCell id="VG1QhJz4mvUb07NT_7DX-121" value="si" style="edgeLabel;html=1;align=center;verticalAlign=middle;resizable=0;points=[];" parent="VG1QhJz4mvUb07NT_7DX-120" vertex="1" connectable="0">
                    <mxGeometry x="-0.7553" y="-1" relative="1" as="geometry">
                        <mxPoint as="offset"/>
                    </mxGeometry>
                </mxCell>
                <mxCell id="VG1QhJz4mvUb07NT_7DX-122" style="edgeStyle=orthogonalEdgeStyle;rounded=0;orthogonalLoop=1;jettySize=auto;html=1;entryX=1;entryY=0.5;entryDx=0;entryDy=0;" parent="1" source="VG1QhJz4mvUb07NT_7DX-106" target="VG1QhJz4mvUb07NT_7DX-5" edge="1">
                    <mxGeometry relative="1" as="geometry">
                        <mxPoint x="820" y="330" as="targetPoint"/>
                        <Array as="points">
                            <mxPoint x="800" y="530"/>
                            <mxPoint x="800" y="280"/>
                        </Array>
                    </mxGeometry>
                </mxCell>
                <mxCell id="VG1QhJz4mvUb07NT_7DX-123" value="no" style="edgeLabel;html=1;align=center;verticalAlign=middle;resizable=0;points=[];" parent="VG1QhJz4mvUb07NT_7DX-122" vertex="1" connectable="0">
                    <mxGeometry x="-0.7136" y="-1" relative="1" as="geometry">
                        <mxPoint as="offset"/>
                    </mxGeometry>
                </mxCell>
                <mxCell id="VG1QhJz4mvUb07NT_7DX-106" value="mas de 3 intentos?" style="rhombus;whiteSpace=wrap;html=1;rounded=0;" parent="1" vertex="1">
                    <mxGeometry x="610" y="490" width="80" height="80" as="geometry"/>
                </mxCell>
                <mxCell id="5" value="" style="edgeStyle=none;html=1;entryX=0;entryY=0.75;entryDx=0;entryDy=0;" edge="1" parent="1" source="2" target="4">
                    <mxGeometry relative="1" as="geometry">
                        <Array as="points">
                            <mxPoint x="250" y="1585"/>
                        </Array>
                    </mxGeometry>
                </mxCell>
                <mxCell id="6" value="si" style="edgeLabel;html=1;align=center;verticalAlign=middle;resizable=0;points=[];" vertex="1" connectable="0" parent="5">
                    <mxGeometry x="-0.0588" relative="1" as="geometry">
                        <mxPoint as="offset"/>
                    </mxGeometry>
                </mxCell>
                <mxCell id="7" style="edgeStyle=none;html=1;entryX=0;entryY=0.5;entryDx=0;entryDy=0;" edge="1" parent="1" source="2" target="VG1QhJz4mvUb07NT_7DX-30">
                    <mxGeometry relative="1" as="geometry">
                        <mxPoint x="140" y="820" as="targetPoint"/>
                        <Array as="points">
                            <mxPoint x="140" y="1280"/>
                            <mxPoint x="140" y="825"/>
                        </Array>
                    </mxGeometry>
                </mxCell>
                <mxCell id="2" value="deseas salir?" style="rhombus;whiteSpace=wrap;html=1;rounded=0;" vertex="1" parent="1">
                    <mxGeometry x="210" y="1239" width="80" height="80" as="geometry"/>
                </mxCell>
                <mxCell id="35" style="edgeStyle=none;html=1;entryX=0.5;entryY=0;entryDx=0;entryDy=0;" edge="1" parent="1" source="4" target="VG1QhJz4mvUb07NT_7DX-102">
                    <mxGeometry relative="1" as="geometry"/>
                </mxCell>
                <mxCell id="4" value="gracias por preferirnos" style="whiteSpace=wrap;html=1;rounded=0;" vertex="1" parent="1">
                    <mxGeometry x="760" y="1540" width="120" height="60" as="geometry"/>
                </mxCell>
                <mxCell id="9" style="edgeStyle=none;html=1;" edge="1" parent="1" source="VG1QhJz4mvUb07NT_7DX-56">
                    <mxGeometry relative="1" as="geometry">
                        <mxPoint x="494" y="1025" as="targetPoint"/>
                        <Array as="points">
                            <mxPoint x="645" y="1025"/>
                        </Array>
                    </mxGeometry>
                </mxCell>
                <mxCell id="13" style="edgeStyle=none;html=1;entryX=0;entryY=0.5;entryDx=0;entryDy=0;exitX=0.5;exitY=1;exitDx=0;exitDy=0;" edge="1" parent="1" source="12" target="4">
                    <mxGeometry relative="1" as="geometry">
                        <mxPoint x="480" y="1470" as="sourcePoint"/>
                        <Array as="points">
                            <mxPoint x="450" y="1570"/>
                        </Array>
                    </mxGeometry>
                </mxCell>
                <mxCell id="15" value="si" style="edgeLabel;html=1;align=center;verticalAlign=middle;resizable=0;points=[];" vertex="1" connectable="0" parent="13">
                    <mxGeometry x="-0.755" y="1" relative="1" as="geometry">
                        <mxPoint as="offset"/>
                    </mxGeometry>
                </mxCell>
                <mxCell id="12" value="deseas salir?" style="rhombus;whiteSpace=wrap;html=1;rounded=0;" vertex="1" parent="1">
                    <mxGeometry x="410" y="1370" width="80" height="80" as="geometry"/>
                </mxCell>
                <mxCell id="16" style="edgeStyle=none;html=1;entryX=0;entryY=1;entryDx=0;entryDy=0;exitX=0;exitY=0.5;exitDx=0;exitDy=0;" edge="1" parent="1" source="12" target="VG1QhJz4mvUb07NT_7DX-30">
                    <mxGeometry relative="1" as="geometry">
                        <Array as="points">
                            <mxPoint x="350" y="1410"/>
                            <mxPoint x="350" y="917"/>
                        </Array>
                    </mxGeometry>
                </mxCell>
                <mxCell id="17" value="no" style="edgeLabel;html=1;align=center;verticalAlign=middle;resizable=0;points=[];" vertex="1" connectable="0" parent="16">
                    <mxGeometry x="-0.7058" y="-1" relative="1" as="geometry">
                        <mxPoint as="offset"/>
                    </mxGeometry>
                </mxCell>
                <mxCell id="19" style="edgeStyle=none;html=1;entryX=0.583;entryY=0;entryDx=0;entryDy=0;entryPerimeter=0;" edge="1" parent="1" source="18" target="4">
                    <mxGeometry relative="1" as="geometry">
                        <mxPoint x="830" y="1449.9999999999998" as="targetPoint"/>
                    </mxGeometry>
                </mxCell>
                <mxCell id="20" value="si" style="edgeLabel;html=1;align=center;verticalAlign=middle;resizable=0;points=[];" vertex="1" connectable="0" parent="19">
                    <mxGeometry x="-0.2333" relative="1" as="geometry">
                        <mxPoint as="offset"/>
                    </mxGeometry>
                </mxCell>
                <mxCell id="18" value="deseas salir?" style="rhombus;whiteSpace=wrap;html=1;rounded=0;" vertex="1" parent="1">
                    <mxGeometry x="790" y="1300" width="80" height="80" as="geometry"/>
                </mxCell>
                <mxCell id="24" style="edgeStyle=none;html=1;entryX=1;entryY=0.5;entryDx=0;entryDy=0;exitX=0.5;exitY=1;exitDx=0;exitDy=0;" edge="1" parent="1" source="23" target="4">
                    <mxGeometry relative="1" as="geometry">
                        <Array as="points">
                            <mxPoint x="1040" y="1570"/>
                        </Array>
                    </mxGeometry>
                </mxCell>
                <mxCell id="25" value="si" style="edgeLabel;html=1;align=center;verticalAlign=middle;resizable=0;points=[];" vertex="1" connectable="0" parent="24">
                    <mxGeometry x="-0.4443" y="1" relative="1" as="geometry">
                        <mxPoint as="offset"/>
                    </mxGeometry>
                </mxCell>
                <mxCell id="23" value="deseas salir?" style="rhombus;whiteSpace=wrap;html=1;rounded=0;" vertex="1" parent="1">
                    <mxGeometry x="1000" y="1210" width="80" height="80" as="geometry"/>
                </mxCell>
                <mxCell id="26" style="edgeStyle=none;html=1;entryX=1;entryY=0;entryDx=0;entryDy=0;exitX=1;exitY=0.5;exitDx=0;exitDy=0;" edge="1" parent="1" source="23" target="VG1QhJz4mvUb07NT_7DX-30">
                    <mxGeometry relative="1" as="geometry">
                        <mxPoint x="1110" y="1250" as="sourcePoint"/>
                        <Array as="points">
                            <mxPoint x="1120" y="1250"/>
                            <mxPoint x="1120" y="758"/>
                        </Array>
                    </mxGeometry>
                </mxCell>
                <mxCell id="27" value="no" style="edgeLabel;html=1;align=center;verticalAlign=middle;resizable=0;points=[];" vertex="1" connectable="0" parent="26">
                    <mxGeometry x="-0.8662" y="-2" relative="1" as="geometry">
                        <mxPoint as="offset"/>
                    </mxGeometry>
                </mxCell>
            </root>
        </mxGraphModel>
    </diagram>
</mxfile>